<svg xmlns="http://www.w3.org/2000/svg" width="387.419" height="61.104" viewBox="0 0 387.419 61.104">
  <g id="그룹_31" data-name="그룹 31" transform="translate(-28.583 -144.949)">
    <path id="패스_3" data-name="패스 3" d="M46.72,174.279V194.51q0,3.791,3.954,5.293T64.582,201.3h1.961c2.9,0,5.047-.593,6.432-1.785s2.376-3.294,2.975-6.317l.14-.724h3.576l-1.414,12.9q-8.9-.5-13.249-.5-4.616,0-10.88-.314c-4.087-.179-6.548-.278-7.388-.278H28.583v-2.3h.835c3.1,0,5.175-.524,6.232-1.554s1.583-3.1,1.583-6.189V155c0-3.238-.48-5.333-1.465-6.3-.977-.951-3.093-1.435-6.35-1.435h-.835v-2.312H76.42l1.412,10.995h-3.58l-.138-.8c-.591-3.318-1.768-5.357-3.53-6.1s-6.367-1.112-13.814-1.112H46.72v24.036H57.534q7.485,0,9.567-1.05c1.387-.71,2.082-2.311,2.082-4.816v-.651h3.658V180.8H69.183v-.576c0-2.23-.581-3.829-1.73-4.8q-1.409-1.14-9.919-1.141Z" transform="translate(0 0)" fill="#ecc9a5"/>
    <path id="패스_4" data-name="패스 4" d="M82.536,178.705l-8.908,11.517q-2.48,3.207-2.485,4.1c0,.931,1.288,1.388,3.863,1.388h.569v1.628H61.7v-1.628h.506a6.592,6.592,0,0,0,3.812-1.194,21.431,21.431,0,0,0,4.179-4.353l10.67-13.63L70.231,162.548q-4.124-5.423-6.575-5.431h-.567V155.5h17.4v1.621h-.736c-2.307,0-3.453.564-3.453,1.7,0,.84.623,2.1,1.873,3.8l6.578,8.91,6.758-8.91c1.92-2.681,2.884-4.193,2.884-4.56,0-.62-.808-.934-2.411-.934h-.473V155.5h11.277v1.621h-.7q-2.882,0-7.11,5.521l-8.582,11.1,12.2,16.515c2.705,3.634,5.079,5.456,7.144,5.456h.567v1.628H89.706v-1.628h.432c2.121,0,3.192-.47,3.192-1.411,0-.671-.724-1.981-2.15-3.947Z" transform="translate(23.441 7.465)" fill="#ecc9a5"/>
    <path id="패스_5" data-name="패스 5" d="M99.4,191.7q-4.755-5.764-4.751-14.778,0-8.966,4.765-14.755a15.693,15.693,0,0,1,24.333,0q4.772,5.8,4.773,14.755,0,9.012-4.773,14.778a15.731,15.731,0,0,1-24.346,0m30.044,1.173a20.466,20.466,0,0,0,6.951-15.961,22.335,22.335,0,0,0-8.682-17.411q-6.269-4.739-16.125-4.739-10.91,0-17.86,6.213a21.763,21.763,0,0,0,0,31.9q6.942,6.225,17.86,6.227,10.895,0,17.857-6.227" transform="translate(41.186 6.949)" fill="#ecc9a5"/>
    <path id="패스_6" data-name="패스 6" d="M129.139,157.13h2.83q7.078,0,10.295,1.885a6.509,6.509,0,0,1,3.216,6.058,10.38,10.38,0,0,1-2.343,6.853,12.026,12.026,0,0,1-6.59,3.87h-7.407Zm6.551,20.294,14.812,19.92h10.064v-1.631h-.4a4.957,4.957,0,0,1-3.289-1.337,45.323,45.323,0,0,1-4.891-5.757l-3.46-4.556a67.975,67.975,0,0,0-4.734-5.528,14.119,14.119,0,0,0-3.484-2.3c4.083-1.182,7.13-2.792,9.164-4.826a10.133,10.133,0,0,0,3.045-7.432,6.745,6.745,0,0,0-3.812-6.568q-3.8-1.916-13.046-1.918H116.137v1.638h.494q3.543,0,4.62,1.038c.721.7,1.088,2.171,1.088,4.416V190.26c0,2.251-.367,3.721-1.088,4.415s-2.258,1.038-4.62,1.038h-.494v1.631H135.1v-1.631h-.3c-2.326,0-3.849-.343-4.575-1.05s-1.084-2.172-1.084-4.4V177.424Z" transform="translate(61.971 7.462)" fill="#ecc9a5"/>
    <path id="패스_7" data-name="패스 7" d="M160.283,157.12a44.6,44.6,0,0,1,11.961,1.235,18.947,18.947,0,0,1,7.711,4.466,18.214,18.214,0,0,1,5.907,13.9q0,8.541-4.912,13.625t-13.133,5.081q-11.056,0-11.055-5.17V157.12Zm2.71,40.224q9.6,0,14.605-1.351a19.846,19.846,0,0,0,8.751-4.907,21.814,21.814,0,0,0,7.029-16.315q0-9.95-7.764-14.8a30.74,30.74,0,0,0-8.693-3.462,84.573,84.573,0,0,0-13.929-1.014H143.768v1.628h.664c2.268,0,3.754.345,4.471,1.035s1.062,2.171,1.062,4.43v27.672q0,3.366-1.062,4.418c-.717.7-2.2,1.042-4.471,1.042h-.664v1.628Z" transform="translate(81.529 7.462)" fill="#ecc9a5"/>
    <path id="패스_8" data-name="패스 8" d="M193.794,197.341h-19.2v-1.628h.533c2.331,0,3.868-.347,4.585-1.042s1.084-2.174,1.084-4.418V162.585q0-3.374-1.084-4.423c-.717-.7-2.254-1.035-4.585-1.035h-.533V155.5h19.2v1.631H193.3c-2.336,0-3.87.34-4.606,1.035s-1.1,2.174-1.1,4.423v27.668c0,2.234.364,3.706,1.1,4.406s2.27,1.054,4.606,1.054h.492Z" transform="translate(103.345 7.465)" fill="#ecc9a5"/>
    <path id="패스_9" data-name="패스 9" d="M188.019,157.117V155.5h19.2v1.621h-.529c-2.321,0-3.846.357-4.572,1.045-.736.7-1.1,2.174-1.1,4.42v18.8q0,8.635,3.672,12.084,3.676,3.489,10.074,3.489,5.766,0,8.973-3.3,3.223-3.3,3.282-10.947V162.582q0-3.369-1.083-4.42c-.717-.688-2.265-1.045-4.621-1.045h-.494V155.5h16.578v1.621h-.435c-2.359,0-3.909.357-4.647,1.045q-1.117,1.055-1.12,4.42v17.881q0,6.555-.912,9.308a10.7,10.7,0,0,1-3.851,5.012q-4.936,3.8-14.253,3.8c-5.3,0-9.492-1-12.6-3.019a10.251,10.251,0,0,1-4.283-4.953c-.722-1.911-1.074-4.994-1.074-9.238V162.582q0-3.369-1.11-4.42c-.741-.688-2.283-1.045-4.625-1.045Z" transform="translate(112.85 7.465)" fill="#ecc9a5"/>
    <path id="패스_10" data-name="패스 10" d="M227.394,155.664v38.212c0,3.089.379,5.113,1.151,6.087s2.382,1.458,4.843,1.458h.487v2.242H217.432v-2.242h.487c2.459,0,4.068-.48,4.833-1.458s1.154-3,1.154-6.087V155.628q0-4.655-1.154-6.1t-4.833-1.45h-.487V145.82h12.5l20.545,41.7,18.934-41.7h12.921v2.256h-.548c-2.434,0-4.018.487-4.784,1.45s-1.143,3-1.143,6.1v36.786q0,6.13,1.143,7.569c.765.958,2.35,1.438,4.784,1.438h.548v2.242H262.906v-2.242h.413q3.735,0,4.893-1.438c.775-.96,1.172-3,1.172-6.107V151.828l-21.119,46.177Z" transform="translate(133.669 0.617)" fill="#ecc9a5"/>
  </g>
</svg>
