<svg xmlns="http://www.w3.org/2000/svg" width="20.304" height="20.304" viewBox="0 0 20.304 20.304">
  <path id="Icon_metro-brightness" data-name="Icon metro-brightness" d="M12.723,7A5.076,5.076,0,1,0,17.8,12.08,5.076,5.076,0,0,0,12.723,7Zm0,8.249V8.908a3.173,3.173,0,1,1,0,6.345Zm0,3.173a1.269,1.269,0,0,1,1.269,1.269v1.269a1.269,1.269,0,1,1-2.538,0V19.694A1.269,1.269,0,0,1,12.723,18.425Zm0-12.69a1.269,1.269,0,0,1-1.269-1.269V3.2a1.269,1.269,0,0,1,2.538,0V4.466A1.269,1.269,0,0,1,12.723,5.735Zm8.883,5.076a1.269,1.269,0,0,1,0,2.538H20.337a1.269,1.269,0,1,1,0-2.538h1.269ZM6.378,12.08a1.269,1.269,0,0,1-1.269,1.269H3.84a1.269,1.269,0,0,1,0-2.538H5.109A1.269,1.269,0,0,1,6.378,12.08ZM19,16.567l.9.9a1.269,1.269,0,0,1-1.795,1.795l-.9-.9A1.269,1.269,0,1,1,19,16.567ZM6.442,7.593l-.9-.9A1.269,1.269,0,0,1,7.339,4.9l.9.9A1.269,1.269,0,1,1,6.442,7.593ZM19,7.593A1.269,1.269,0,1,1,17.209,5.8l.9-.9A1.269,1.269,0,1,1,19.9,6.7ZM6.442,16.567a1.269,1.269,0,1,1,1.795,1.795l-.9.9a1.269,1.269,0,1,1-1.795-1.795Z" transform="translate(-2.571 -1.928)" fill="#fff"/>
</svg>
