<svg xmlns="http://www.w3.org/2000/svg" width="18.59" height="18.558" viewBox="0 0 18.59 18.558">
  <g id="그룹_44" data-name="그룹 44" transform="translate(-1388.833 -782.056)">
    <path id="Icon_metro-moon" data-name="Icon metro-moon" d="M23.65,22.6A7.712,7.712,0,1,1,15.626,9.9a.965.965,0,0,1,1.23,1.23,5.748,5.748,0,0,0,7.361,7.361.964.964,0,0,1,1.229,1.23A7.614,7.614,0,0,1,23.65,22.6ZM14.107,13.06a5.783,5.783,0,1,0,8.616,7.688A7.676,7.676,0,0,1,14.6,12.625a5.425,5.425,0,0,0-.492.434Z" transform="translate(1378.345 775.756)"/>
    <path id="Icon_weather-stars" data-name="Icon weather-stars" d="M6.444,9.515a.908.908,0,0,0,.865-.9.9.9,0,0,0,.862.9.9.9,0,0,0-.862.9.858.858,0,0,0-.253-.624A.875.875,0,0,0,6.444,9.515ZM7.309,6.84A1.772,1.772,0,0,0,8.992,5.076a1.7,1.7,0,0,0,.49,1.218,1.724,1.724,0,0,0,1.2.546,1.722,1.722,0,0,0-.851.264,1.785,1.785,0,0,0-.613.643,1.747,1.747,0,0,0-.223.865A1.779,1.779,0,0,0,7.309,6.84Zm1.233,4A1.327,1.327,0,0,0,9.809,9.515a1.327,1.327,0,0,0,1.263,1.326,1.327,1.327,0,0,0-1.263,1.326,1.279,1.279,0,0,0-.368-.917A1.3,1.3,0,0,0,8.543,10.841ZM11.072,9.08a1.32,1.32,0,0,0,1.259-1.33A1.327,1.327,0,0,0,13.6,9.076,1.327,1.327,0,0,0,12.331,10.4,1.314,1.314,0,0,0,11.072,9.08Z" transform="translate(1393.825 776.98)"/>
  </g>
</svg>
