<svg xmlns="http://www.w3.org/2000/svg" width="98.095" height="34" viewBox="0 0 98.095 34">
  <g id="그룹_116" data-name="그룹 116" transform="translate(-357.601 -390.017)">
    <g id="그룹_35" data-name="그룹 35" transform="translate(357.601 390.017)">
      <path id="패스_3" data-name="패스 3" d="M367.606,390.017a4.024,4.024,0,1,0,4.024,4.024A4.029,4.029,0,0,0,367.606,390.017Z" transform="translate(-360.295 -390.017)" fill="#003744"/>
      <path id="패스_4" data-name="패스 4" d="M357.6,417.768h4.118V433.8h6.386V413.627H357.6Z" transform="translate(-357.601 -400.649)" fill="#003744"/>
      <path id="패스_5" data-name="패스 5" d="M488.831,409.957c-3.407-2.832-9.314-3.116-17.386-.89v22.012h6.7V412.337c.559-.144,3.735-.878,5.605.549a4.089,4.089,0,0,1,1.412,3.441v14.753h6.693v-14.15A8.965,8.965,0,0,0,488.831,409.957Z" transform="translate(-408.868 -397.93)" fill="#003744"/>
      <path id="패스_6" data-name="패스 6" d="M438.818,408.449h0a25.083,25.083,0,0,0-11.2,1.132l1.288,3.9a17.548,17.548,0,0,1,7.976-.955c3.405.6,2.992,3.042,2.992,4.119a37.668,37.668,0,0,0-9.064,1.654c-3.41,1.209-5.027,3.518-4.807,6.862.364,5.531,6.412,6.7,9,6.925,7.119.627,11.242-1.323,11.242-1.323V418.7C446.237,412.272,444.157,409.4,438.818,408.449Zm1.045,19.489c-.545.118-3.547.7-5.68-.3a3.143,3.143,0,0,1-1.781-2.692,3.334,3.334,0,0,1,1.779-3.2,14.1,14.1,0,0,1,5.682-1.069Z" transform="translate(-388.393 -398.209)" fill="#003744"/>
      <path id="패스_7" data-name="패스 7" d="M395.755,408.449h0a25.083,25.083,0,0,0-11.2,1.132l1.288,3.9a17.547,17.547,0,0,1,7.976-.955c3.406.6,2.992,3.042,2.992,4.119a37.668,37.668,0,0,0-9.064,1.654c-3.41,1.209-5.027,3.518-4.807,6.862.364,5.531,6.412,6.7,9,6.925,7.119.627,11.242-1.323,11.242-1.323V418.7C403.174,412.272,401.094,409.4,395.755,408.449Zm1.045,19.489c-.545.118-3.547.7-5.68-.3a3.143,3.143,0,0,1-1.781-2.692,3.333,3.333,0,0,1,1.78-3.2,14.093,14.093,0,0,1,5.681-1.069Z" transform="translate(-369.001 -398.209)" fill="#003744"/>
    </g>
    <path id="패스_8" data-name="패스 8" d="M453.414,393.374H385.852a.806.806,0,0,0-.806.806v2.443a.807.807,0,0,0,.806.806h70.206a3.684,3.684,0,0,1,3.684,3.684v23.925h8.313V404.677a6.216,6.216,0,0,0-2.658-5.1l-6.359-4.437A9.829,9.829,0,0,0,453.414,393.374Z" transform="translate(-12.359 -1.512)" fill="#8bb929"/>
  </g>
</svg>
