<svg xmlns="http://www.w3.org/2000/svg" width="99" height="34" viewBox="0 0 99 34">
  <path id="Shape_13_copy" data-name="Shape 13 copy" d="M81.074,48.536a26.736,26.736,0,0,0-8.284,1.355L74.086,54S78.521,52.27,82,52.909c3.42.628,3,2.664,3,3.735-1.644-.024-13.776-.423-13.945,7.61C70.94,69.794,76.1,72,82.256,72a40.613,40.613,0,0,0,9.165-1.046l-.009-12.84C91.413,51.662,88.774,48.536,81.074,48.536ZM85,67.589c-.548.118-7.5,1.086-7.5-3.084,0-3.786,5.728-3.725,7.5-3.759V67.59Zm19.879-19.053A26.739,26.739,0,0,0,96.6,49.891L97.893,54s4.435-1.73,7.912-1.091c3.42.628,3,2.664,3,3.735-1.644-.024-13.776-.423-13.945,7.61-.113,5.54,5.048,7.746,11.2,7.746a40.624,40.624,0,0,0,9.165-1.046l-.008-12.84c0-6.452-2.639-9.578-10.339-9.578Zm3.928,19.053c-.548.118-7.5,1.086-7.5-3.084,0-3.786,5.728-3.725,7.5-3.759V67.59ZM64.4,38a4.048,4.048,0,1,0,4.057,4.048A4.048,4.048,0,0,0,64.4,38ZM57,55.309h4.185V71.4h6.423V51.154H57Zm83.582,2.127c0-6.375-4.357-8.9-11.2-8.9a26.5,26.5,0,0,0-9.156,1.669V71.4h6.4c0-3.059.006-18.008.006-18.008,3-.994,7.5-.987,7.5,3.376V71.4h6.441V57.436Zm.691-17.415H73.634a.81.81,0,0,0-.811.809v2.43a.81.81,0,0,0,.811.809h70.14a3.7,3.7,0,0,1,3.7,3.7V71.4H156V51.364a6.223,6.223,0,0,0-2.674-5.1l-6.4-4.467a9.864,9.864,0,0,0-5.658-1.775Z" transform="translate(-57 -38)" fill="#fff" fill-rule="evenodd"/>
</svg>
