<svg xmlns="http://www.w3.org/2000/svg" width="333" height="61" viewBox="0 0 333 61">
  <g id="그룹_757" data-name="그룹 757" transform="translate(-434 -2526)">
    <rect id="사각형_23877" data-name="사각형 23877" width="333" height="61" transform="translate(434 2526)" fill="#fff"/>
    <path id="패스_12" data-name="패스 12" d="M10.784-13.376H12.9V1.408H10.784Zm-5.808,1.04a3.313,3.313,0,0,1,1.544.368A3.582,3.582,0,0,1,7.744-10.92a5.282,5.282,0,0,1,.808,1.648,7.461,7.461,0,0,1,.3,2.184,7.542,7.542,0,0,1-.3,2.192,5.374,5.374,0,0,1-.808,1.664A3.549,3.549,0,0,1,6.52-2.176a3.313,3.313,0,0,1-1.544.368,3.313,3.313,0,0,1-1.544-.368A3.549,3.549,0,0,1,2.208-3.232,5.374,5.374,0,0,1,1.4-4.9a7.542,7.542,0,0,1-.3-2.192,7.461,7.461,0,0,1,.3-2.184,5.282,5.282,0,0,1,.808-1.648,3.582,3.582,0,0,1,1.224-1.048A3.313,3.313,0,0,1,4.976-12.336Zm0,1.9a1.518,1.518,0,0,0-1.328.848,4.9,4.9,0,0,0-.512,2.5,4.946,4.946,0,0,0,.512,2.5,1.517,1.517,0,0,0,1.328.856A1.517,1.517,0,0,0,6.3-4.584a4.946,4.946,0,0,0,.512-2.5,4.9,4.9,0,0,0-.512-2.5A1.518,1.518,0,0,0,4.976-10.432Zm21.632,1.3H28.56v1.728H26.608V-2.64H24.5V-13.36h2.112Zm-3.5.464a3.624,3.624,0,0,1-.3,1.5,3.6,3.6,0,0,1-.848,1.184,3.942,3.942,0,0,1-1.264.784,4.29,4.29,0,0,1-1.568.28,4.353,4.353,0,0,1-1.576-.28,3.922,3.922,0,0,1-1.272-.784,3.6,3.6,0,0,1-.848-1.184,3.624,3.624,0,0,1-.3-1.5,3.68,3.68,0,0,1,.3-1.5,3.494,3.494,0,0,1,.848-1.184,4,4,0,0,1,1.272-.776,4.353,4.353,0,0,1,1.576-.28,4.29,4.29,0,0,1,1.568.28,4.017,4.017,0,0,1,1.264.776,3.494,3.494,0,0,1,.848,1.184A3.68,3.68,0,0,1,23.1-8.672Zm-5.92,0a1.821,1.821,0,0,0,.552,1.416,1.975,1.975,0,0,0,1.384.5,1.982,1.982,0,0,0,1.376-.5,1.807,1.807,0,0,0,.56-1.416,1.807,1.807,0,0,0-.56-1.416,1.982,1.982,0,0,0-1.376-.5,1.975,1.975,0,0,0-1.384.5A1.821,1.821,0,0,0,17.184-8.672Zm2.032,4.928V-.56h7.92V1.12H17.1V-3.744ZM43.872-7.552l-2.08-.208a11.078,11.078,0,0,0,.32-1.776q.064-.768.064-1.5h-8.1V-12.7H44.288v1.216q0,.88-.056,1.832A10.8,10.8,0,0,1,43.872-7.552Zm-4.256.784h6.24V-5.1H32.592V-6.768H37.5V-9.344h2.112Zm-.48,2.592a11.063,11.063,0,0,1,2.16.192,6.157,6.157,0,0,1,1.648.552A2.953,2.953,0,0,1,44-2.56a1.951,1.951,0,0,1,.368,1.168A1.926,1.926,0,0,1,44-.24a2.953,2.953,0,0,1-1.056.872,6.157,6.157,0,0,1-1.648.552,11.063,11.063,0,0,1-2.16.192,11.094,11.094,0,0,1-2.152-.192A6.03,6.03,0,0,1,35.336.632,2.969,2.969,0,0,1,34.288-.24a1.926,1.926,0,0,1-.368-1.152,1.951,1.951,0,0,1,.368-1.168,2.969,2.969,0,0,1,1.048-.872,6.03,6.03,0,0,1,1.648-.552A11.094,11.094,0,0,1,39.136-4.176Zm0,3.968a7.1,7.1,0,0,0,2.32-.3q.816-.3.816-.888,0-.608-.816-.9a7.1,7.1,0,0,0-2.32-.3,7.022,7.022,0,0,0-2.312.3q-.808.3-.808.9,0,.592.808.888A7.022,7.022,0,0,0,39.136-.208ZM56.992-13.36H59.12v8.784H56.992ZM55.9-6.944,54.88-5.28a5.829,5.829,0,0,1-2.1-1.144A5.6,5.6,0,0,1,51.44-8.176a6.231,6.231,0,0,1-1.4,1.9,5.734,5.734,0,0,1-2.184,1.24L46.816-6.7a5.336,5.336,0,0,0,1.592-.776,4.778,4.778,0,0,0,1.1-1.1A4.381,4.381,0,0,0,50.136-9.9a4.992,4.992,0,0,0,.2-1.384v-1.408H52.48v1.408a4.663,4.663,0,0,0,.2,1.352,4.15,4.15,0,0,0,.616,1.24A4.337,4.337,0,0,0,54.36-7.664,5.513,5.513,0,0,0,55.9-6.944Zm-6.832,4.7v-1.7H59.12V1.392H56.992V-2.24Zm27.6-11.1V-2.768H74.544V-13.344ZM72.656-8.672a3.64,3.64,0,0,1-.3,1.488A3.493,3.493,0,0,1,71.5-6a4,4,0,0,1-1.272.776,4.353,4.353,0,0,1-1.576.28,4.418,4.418,0,0,1-1.584-.28A3.882,3.882,0,0,1,65.8-6a3.645,3.645,0,0,1-.848-1.184,3.56,3.56,0,0,1-.312-1.488,3.6,3.6,0,0,1,.312-1.5A3.645,3.645,0,0,1,65.8-11.36a3.882,3.882,0,0,1,1.272-.776,4.418,4.418,0,0,1,1.584-.28,4.353,4.353,0,0,1,1.576.28,4,4,0,0,1,1.272.776,3.493,3.493,0,0,1,.848,1.184A3.68,3.68,0,0,1,72.656-8.672Zm-5.952,0a1.769,1.769,0,0,0,.568,1.408,2.031,2.031,0,0,0,1.384.5,1.993,1.993,0,0,0,1.384-.5,1.8,1.8,0,0,0,.552-1.408,1.82,1.82,0,0,0-.552-1.416,1.975,1.975,0,0,0-1.384-.5,2.011,2.011,0,0,0-1.384.5A1.794,1.794,0,0,0,66.7-8.672ZM68.976-.56H77.04V1.12H66.864V-3.808h2.112ZM91.632-6.416l-.9,1.76a8.166,8.166,0,0,1-3.3-1.392,6.873,6.873,0,0,1-2.088-2.416,6.975,6.975,0,0,1-2.08,2.424,7.879,7.879,0,0,1-3.3,1.384l-.9-1.76a7.031,7.031,0,0,0,2.208-.728A6.461,6.461,0,0,0,82.9-8.352a4.877,4.877,0,0,0,.992-1.5,4.125,4.125,0,0,0,.336-1.592V-12.5H86.48v1.056a4.162,4.162,0,0,0,.336,1.608,4.877,4.877,0,0,0,.992,1.5,6.313,6.313,0,0,0,1.616,1.2A7.165,7.165,0,0,0,91.632-6.416ZM78.752-2.128H92.1V-.416H78.752Zm28-5.648v1.744h-2.144V1.392H102.5V-13.36h2.112v5.584ZM95.76-6.384v2.736q1.552,0,2.9-.08t2.792-.3l.192,1.68q-.848.128-1.648.208t-1.616.12q-.816.04-1.672.056T94.9-1.952H93.648V-12.144h6.928v1.712H95.76v2.4h4.608v1.648Zm21.216-3.872v-.064h-8.208V-12h10.32v1.744q0,.768-.008,1.552t-.056,1.64q-.048.856-.16,1.816t-.32,2.1l-2.1-.192q.192-1.056.3-1.984T116.9-7.1q.056-.848.064-1.624T116.976-10.256Zm-9.584,7.984H120.72V-.544H107.392Zm24.88-11.072h2v8.688h-2V-8.192h-1.184v3.408H129.12v-8.3h1.968v3.2h1.184Zm-3.84,6.208.176,1.664q-.624.112-1.224.176t-1.232.1q-.632.04-1.32.048t-1.5.008H122.3v-4.5h3.536v-1.2h-3.552V-12.48h5.584v4.368h-3.536V-6.8q1.168-.016,2.128-.08A16.321,16.321,0,0,0,128.432-7.136Zm-4.144,8.352V-4.048h9.984V1.216Zm2.08-3.616V-.448h5.84V-2.4Z" transform="translate(487 2564)" fill="#1f2329"/>
    <path id="Icon_awesome-instagram" data-name="Icon awesome-instagram" d="M11.209,7.7a5.748,5.748,0,1,0,5.748,5.748A5.739,5.739,0,0,0,11.209,7.7Zm0,9.485a3.737,3.737,0,1,1,3.737-3.737A3.744,3.744,0,0,1,11.209,17.184Zm7.324-9.72a1.341,1.341,0,1,1-1.341-1.341A1.338,1.338,0,0,1,18.533,7.464ZM22.34,8.825a6.635,6.635,0,0,0-1.811-4.7,6.678,6.678,0,0,0-4.7-1.811c-1.851-.105-7.4-.105-9.25,0a6.669,6.669,0,0,0-4.7,1.806A6.657,6.657,0,0,0,.074,8.82c-.105,1.851-.105,7.4,0,9.25a6.635,6.635,0,0,0,1.811,4.7,6.687,6.687,0,0,0,4.7,1.811c1.851.105,7.4.105,9.25,0a6.635,6.635,0,0,0,4.7-1.811,6.678,6.678,0,0,0,1.811-4.7c.105-1.851.105-7.394,0-9.245ZM19.949,20.056a3.783,3.783,0,0,1-2.131,2.131c-1.476.585-4.978.45-6.608.45s-5.138.13-6.608-.45A3.783,3.783,0,0,1,2.47,20.056c-.585-1.476-.45-4.978-.45-6.608s-.13-5.138.45-6.608A3.783,3.783,0,0,1,4.6,4.708c1.476-.585,4.978-.45,6.608-.45s5.138-.13,6.608.45a3.783,3.783,0,0,1,2.131,2.131c.585,1.476.45,4.978.45,6.608S20.534,18.585,19.949,20.056Z" transform="translate(452.564 2543.762)" fill="#333"/>
    <path id="Icon_material-navigate-next" data-name="Icon material-navigate-next" d="M14.236,9l-1.351,1.351,4.389,4.4-4.389,4.4L14.236,20.5l5.75-5.75Z" transform="translate(732.129 2543)"/>
  </g>
</svg>
