<svg xmlns="http://www.w3.org/2000/svg" width="333" height="61" viewBox="0 0 333 61">
  <g id="그룹_766" data-name="그룹 766" transform="translate(-794 -2472)">
    <rect id="사각형_23877" data-name="사각형 23877" width="333" height="61" transform="translate(794 2472)" fill="#fff"/>
    <path id="패스_17" data-name="패스 17" d="M10.784-13.376H12.9V1.408H10.784Zm-5.808,1.04a3.313,3.313,0,0,1,1.544.368A3.582,3.582,0,0,1,7.744-10.92a5.282,5.282,0,0,1,.808,1.648,7.461,7.461,0,0,1,.3,2.184,7.542,7.542,0,0,1-.3,2.192,5.374,5.374,0,0,1-.808,1.664A3.549,3.549,0,0,1,6.52-2.176a3.313,3.313,0,0,1-1.544.368,3.313,3.313,0,0,1-1.544-.368A3.549,3.549,0,0,1,2.208-3.232,5.374,5.374,0,0,1,1.4-4.9a7.542,7.542,0,0,1-.3-2.192,7.461,7.461,0,0,1,.3-2.184,5.282,5.282,0,0,1,.808-1.648,3.582,3.582,0,0,1,1.224-1.048A3.313,3.313,0,0,1,4.976-12.336Zm0,1.9a1.518,1.518,0,0,0-1.328.848,4.9,4.9,0,0,0-.512,2.5,4.946,4.946,0,0,0,.512,2.5,1.517,1.517,0,0,0,1.328.856A1.517,1.517,0,0,0,6.3-4.584a4.946,4.946,0,0,0,.512-2.5,4.9,4.9,0,0,0-.512-2.5A1.518,1.518,0,0,0,4.976-10.432Zm21.632,1.3H28.56v1.728H26.608V-2.64H24.5V-13.36h2.112Zm-3.5.464a3.624,3.624,0,0,1-.3,1.5,3.6,3.6,0,0,1-.848,1.184,3.942,3.942,0,0,1-1.264.784,4.29,4.29,0,0,1-1.568.28,4.353,4.353,0,0,1-1.576-.28,3.922,3.922,0,0,1-1.272-.784,3.6,3.6,0,0,1-.848-1.184,3.624,3.624,0,0,1-.3-1.5,3.68,3.68,0,0,1,.3-1.5,3.494,3.494,0,0,1,.848-1.184,4,4,0,0,1,1.272-.776,4.353,4.353,0,0,1,1.576-.28,4.29,4.29,0,0,1,1.568.28,4.017,4.017,0,0,1,1.264.776,3.494,3.494,0,0,1,.848,1.184A3.68,3.68,0,0,1,23.1-8.672Zm-5.92,0a1.821,1.821,0,0,0,.552,1.416,1.975,1.975,0,0,0,1.384.5,1.982,1.982,0,0,0,1.376-.5,1.807,1.807,0,0,0,.56-1.416,1.807,1.807,0,0,0-.56-1.416,1.982,1.982,0,0,0-1.376-.5,1.975,1.975,0,0,0-1.384.5A1.821,1.821,0,0,0,17.184-8.672Zm2.032,4.928V-.56h7.92V1.12H17.1V-3.744ZM43.872-7.552l-2.08-.208a11.078,11.078,0,0,0,.32-1.776q.064-.768.064-1.5h-8.1V-12.7H44.288v1.216q0,.88-.056,1.832A10.8,10.8,0,0,1,43.872-7.552Zm-4.256.784h6.24V-5.1H32.592V-6.768H37.5V-9.344h2.112Zm-.48,2.592a11.063,11.063,0,0,1,2.16.192,6.157,6.157,0,0,1,1.648.552A2.953,2.953,0,0,1,44-2.56a1.951,1.951,0,0,1,.368,1.168A1.926,1.926,0,0,1,44-.24a2.953,2.953,0,0,1-1.056.872,6.157,6.157,0,0,1-1.648.552,11.063,11.063,0,0,1-2.16.192,11.094,11.094,0,0,1-2.152-.192A6.03,6.03,0,0,1,35.336.632,2.969,2.969,0,0,1,34.288-.24a1.926,1.926,0,0,1-.368-1.152,1.951,1.951,0,0,1,.368-1.168,2.969,2.969,0,0,1,1.048-.872,6.03,6.03,0,0,1,1.648-.552A11.094,11.094,0,0,1,39.136-4.176Zm0,3.968a7.1,7.1,0,0,0,2.32-.3q.816-.3.816-.888,0-.608-.816-.9a7.1,7.1,0,0,0-2.32-.3,7.022,7.022,0,0,0-2.312.3q-.808.3-.808.9,0,.592.808.888A7.022,7.022,0,0,0,39.136-.208ZM56.992-13.36H59.12v8.784H56.992ZM55.9-6.944,54.88-5.28a5.829,5.829,0,0,1-2.1-1.144A5.6,5.6,0,0,1,51.44-8.176a6.231,6.231,0,0,1-1.4,1.9,5.734,5.734,0,0,1-2.184,1.24L46.816-6.7a5.336,5.336,0,0,0,1.592-.776,4.778,4.778,0,0,0,1.1-1.1A4.381,4.381,0,0,0,50.136-9.9a4.992,4.992,0,0,0,.2-1.384v-1.408H52.48v1.408a4.663,4.663,0,0,0,.2,1.352,4.15,4.15,0,0,0,.616,1.24A4.337,4.337,0,0,0,54.36-7.664,5.513,5.513,0,0,0,55.9-6.944Zm-6.832,4.7v-1.7H59.12V1.392H56.992V-2.24Zm28.96-5.5V-6H75.968V1.344H73.856v-14.72h2.112v5.632ZM65.28-11.952h6.768A20.087,20.087,0,0,1,71.792-8.7a10.1,10.1,0,0,1-.968,2.96A9.888,9.888,0,0,1,68.832-3.1,13.971,13.971,0,0,1,65.488-.816l-1.12-1.632A12.564,12.564,0,0,0,67.3-4.392,8.145,8.145,0,0,0,69.04-6.64l-4.272.416L64.5-8.016l5.152-.3q.112-.464.192-.944a9.7,9.7,0,0,0,.112-1.008H65.28ZM92.352-7.744V-6H90.288V1.344H88.176v-14.72h2.112v5.632ZM79.6-11.952h6.768A20.087,20.087,0,0,1,86.112-8.7a10.1,10.1,0,0,1-.968,2.96A9.888,9.888,0,0,1,83.152-3.1,13.971,13.971,0,0,1,79.808-.816l-1.12-1.632a12.564,12.564,0,0,0,2.936-1.944A8.145,8.145,0,0,0,83.36-6.64l-4.272.416-.272-1.792,5.152-.3q.112-.464.192-.944a9.7,9.7,0,0,0,.112-1.008H79.6Zm21.184,9.9h5.632V-.336H93.072V-2.048h5.6v-2.5a6.688,6.688,0,0,1-1.792-.448,4.976,4.976,0,0,1-1.4-.848,3.7,3.7,0,0,1-.912-1.2,3.45,3.45,0,0,1-.328-1.5,3.412,3.412,0,0,1,.416-1.68,3.872,3.872,0,0,1,1.152-1.28,5.606,5.606,0,0,1,1.744-.816,7.892,7.892,0,0,1,2.176-.288,7.954,7.954,0,0,1,2.192.288,5.606,5.606,0,0,1,1.744.816,3.872,3.872,0,0,1,1.152,1.28,3.412,3.412,0,0,1,.416,1.68,3.45,3.45,0,0,1-.328,1.5,3.65,3.65,0,0,1-.92,1.2,5.1,5.1,0,0,1-1.408.848,6.688,6.688,0,0,1-1.792.448Zm-4.464-6.5a2.046,2.046,0,0,0,.248,1.008,2.176,2.176,0,0,0,.7.752,3.389,3.389,0,0,0,1.08.464,5.633,5.633,0,0,0,1.384.16,5.607,5.607,0,0,0,1.392-.16,3.5,3.5,0,0,0,1.08-.464,2.151,2.151,0,0,0,.7-.752,2.046,2.046,0,0,0,.248-1.008,2.046,2.046,0,0,0-.248-1.008,2.151,2.151,0,0,0-.7-.752,3.5,3.5,0,0,0-1.08-.464,5.608,5.608,0,0,0-1.392-.16,5.633,5.633,0,0,0-1.384.16,3.389,3.389,0,0,0-1.08.464,2.176,2.176,0,0,0-.7.752A2.046,2.046,0,0,0,96.32-8.544Zm21.824-4.832h2V1.36h-2V-6h-1.2V.7h-1.968v-13.84h1.968v5.408h1.2Zm-6.176,4.208v.24a9.11,9.11,0,0,0,.152,1.656,6.642,6.642,0,0,0,.488,1.56,5.434,5.434,0,0,0,.872,1.344,4.63,4.63,0,0,0,1.32,1.024l-1.12,1.568a4.725,4.725,0,0,1-1.648-1.352,7.476,7.476,0,0,1-1.04-1.9,7.688,7.688,0,0,1-1.024,2.088,4.926,4.926,0,0,1-1.664,1.5L107.12-3.024a4.732,4.732,0,0,0,1.328-1.112,6.066,6.066,0,0,0,.88-1.44,7.291,7.291,0,0,0,.488-1.64,9.866,9.866,0,0,0,.152-1.712v-.24h-2.352V-10.88h2.352v-2h2v2H114.3v1.712ZM131.92-5.92V-9.632h-3.568v-1.68h3.568v-2.064h2.112V-5.92ZM130.192-8.5l.272,1.7a29.552,29.552,0,0,1-3.448.448q-1.656.112-3.256.112h-1.248v-6.528h2.1v4.784q1.36-.032,2.72-.144T130.192-8.5ZM126.448-.448H134.4V1.2H124.336V-2.9h7.584v-.816h-7.6V-5.36h9.712v4.016h-7.584Z" transform="translate(847 2510)" fill="#1f2329"/>
    <path id="Icon_material-navigate-next" data-name="Icon material-navigate-next" d="M14.236,9l-1.351,1.351,4.389,4.4-4.389,4.4L14.236,20.5l5.75-5.75Z" transform="translate(1092.129 2489)"/>
    <g id="그룹_773" data-name="그룹 773" transform="translate(739.231 2424.374)">
      <path id="패스_16" data-name="패스 16" d="M4.082,0h12.77a4.082,4.082,0,0,1,4.082,4.082v12.77a4.082,4.082,0,0,1-4.082,4.082H4.082A4.082,4.082,0,0,1,0,16.852V4.082A4.082,4.082,0,0,1,4.082,0Z" transform="translate(73.436 68.293)" fill="none" stroke="#000" stroke-width="2"/>
      <g id="그룹_770" data-name="그룹 770" transform="translate(76.352 70.773)">
        <path id="패스_14" data-name="패스 14" d="M95.2,80.381a7.284,7.284,0,0,0-7.551,6.984,6.108,6.108,0,0,0,2.827,5.448l.008,0V96.16a.192.192,0,0,0,.307.154l2.863-2.127.062.027a8.2,8.2,0,0,0,1.484.135,7.006,7.006,0,1,0,0-13.969" transform="translate(-87.646 -80.381)"/>
        <path id="패스_15" data-name="패스 15" d="M92.811,89.412a1.578,1.578,0,0,0,1.564-1.128H95.47a2.62,2.62,0,0,1-2.658,2.181,2.831,2.831,0,1,1,0-5.662,2.622,2.622,0,0,1,2.666,2.221H94.386a1.557,1.557,0,0,0-1.575-1.183,1.709,1.709,0,0,0-1.777,1.792,1.753,1.753,0,0,0,1.777,1.778m7.214.945h-1V88.094a.721.721,0,0,0-.77-.8c-.521,0-.855.319-.855.964v2.1h-1V84.821h1V86.9a1.286,1.286,0,0,1,1.159-.544,1.376,1.376,0,0,1,1.05.428,1.613,1.613,0,0,1,.42,1.182Z" transform="translate(-87.791 -80.658)" fill="#fff"/>
      </g>
    </g>
  </g>
</svg>
