<svg xmlns="http://www.w3.org/2000/svg" width="333" height="61" viewBox="0 0 333 61">
  <g id="그룹_767" data-name="그룹 767" transform="translate(-1153 -2472)">
    <rect id="사각형_23877" data-name="사각형 23877" width="333" height="61" transform="translate(1153 2472)" fill="#fff"/>
    <path id="패스_18" data-name="패스 18" d="M11.328-13.376h2V1.376h-2V-6H10V.688H8.032V-13.088H10V-7.7h1.328ZM3.184-9.952V-3.68q1.056-.032,2.016-.1a19.4,19.4,0,0,0,2.016-.264l.16,1.712a20.5,20.5,0,0,1-2.6.328q-1.24.072-2.648.072H1.1v-9.728H6.56v1.712ZM21.648-6.224A9.374,9.374,0,0,1,19.5-6.456a5.721,5.721,0,0,1-1.688-.664,3.338,3.338,0,0,1-1.1-1.048,2.523,2.523,0,0,1-.392-1.384,2.456,2.456,0,0,1,.392-1.36,3.372,3.372,0,0,1,1.1-1.04,5.873,5.873,0,0,1,1.688-.672,9.075,9.075,0,0,1,2.152-.24,9.048,9.048,0,0,1,2.16.24,5.882,5.882,0,0,1,1.68.672,3.372,3.372,0,0,1,1.1,1.04,2.456,2.456,0,0,1,.392,1.36,2.523,2.523,0,0,1-.392,1.384,3.338,3.338,0,0,1-1.1,1.048,5.727,5.727,0,0,1-1.68.664A9.346,9.346,0,0,1,21.648-6.224Zm0-4.96a5.444,5.444,0,0,0-2.312.408,1.307,1.307,0,0,0-.856,1.224,1.322,1.322,0,0,0,.856,1.232,5.352,5.352,0,0,0,2.312.416,5.3,5.3,0,0,0,2.3-.416A1.322,1.322,0,0,0,24.8-9.552a1.307,1.307,0,0,0-.848-1.224A5.388,5.388,0,0,0,21.648-11.184Zm6.7,6.064v1.7H22.688V1.392H20.576V-3.424H15.008v-1.7ZM40.928-9.088H42.88v1.744H40.928v4.768H38.816V-13.36h2.112Zm-2.784,2.72L37.056-4.72a5.569,5.569,0,0,1-2.024-1.152,5.648,5.648,0,0,1-1.3-1.76A6.113,6.113,0,0,1,32.36-5.7a5.56,5.56,0,0,1-2.136,1.248L29.1-6.1A5.38,5.38,0,0,0,30.7-6.9a4.9,4.9,0,0,0,1.1-1.136,4.514,4.514,0,0,0,.632-1.36,5.562,5.562,0,0,0,.2-1.48v-1.584h2.144v1.6A5.069,5.069,0,0,0,34.96-9.48a4.382,4.382,0,0,0,.6,1.28,4.43,4.43,0,0,0,1.048,1.072A5.3,5.3,0,0,0,38.144-6.368ZM33.552-3.6V-.56H41.44V1.12h-10V-3.6Zm20.3-9.76h2.112v7.92H53.856V-8.4H51.52a3.233,3.233,0,0,1-.488,1.088,3.372,3.372,0,0,1-.848.848,4.163,4.163,0,0,1-1.136.552,4.4,4.4,0,0,1-1.336.2,4.341,4.341,0,0,1-1.536-.264A3.845,3.845,0,0,1,44.952-6.7a3.322,3.322,0,0,1-.816-1.112,3.367,3.367,0,0,1-.3-1.416,3.367,3.367,0,0,1,.3-1.416,3.322,3.322,0,0,1,.816-1.112,3.845,3.845,0,0,1,1.224-.728,4.341,4.341,0,0,1,1.536-.264,4.492,4.492,0,0,1,1.328.192,3.91,3.91,0,0,1,1.112.536,3.554,3.554,0,0,1,.84.832,3.3,3.3,0,0,1,.512,1.08h2.352ZM47.712-7.472a1.961,1.961,0,0,0,1.344-.464,1.635,1.635,0,0,0,.528-1.3,1.635,1.635,0,0,0-.528-1.3,1.961,1.961,0,0,0-1.344-.464,1.931,1.931,0,0,0-1.336.464,1.647,1.647,0,0,0-.52,1.3,1.647,1.647,0,0,0,.52,1.3A1.931,1.931,0,0,0,47.712-7.472Zm6.16,4.08V-4.8h2.1v6h-9.76v-6h2.1v1.408Zm0,2.928V-1.792H48.3V-.464Zm14.7-12.9h2.016V1.376H68.576V-6.112H67.264V.752H65.3V-12.976h1.968v5.168h1.312ZM58.528-11.536h5.808a16.4,16.4,0,0,1-.256,2.952,10.208,10.208,0,0,1-.864,2.648,9.2,9.2,0,0,1-1.64,2.328,11.618,11.618,0,0,1-2.568,1.976L57.776-3.1a9.08,9.08,0,0,0,3.248-2.944,8.5,8.5,0,0,0,1.232-3.808H58.528Zm25.36,1.024h1.936V-8.8H83.888v2.928H81.776V-13.36h2.112ZM79.776-12.72v6.464H72.72V-12.72H74.8v1.76h2.9v-1.76ZM77.7-7.9V-9.376H74.8V-7.9ZM76.272-1.3v.928H84.3V1.264H74.176V-2.8h7.632v-.9H74.16V-5.3h9.728v4Zm24.88-6.256-2.08-.208a11.078,11.078,0,0,0,.32-1.776q.064-.768.064-1.5h-8.1V-12.7h10.208v1.216q0,.88-.056,1.832A10.8,10.8,0,0,1,101.152-7.552ZM96.9-6.768h6.24V-5.1H89.872V-6.768h4.912V-9.344H96.9Zm-.48,2.592a11.063,11.063,0,0,1,2.16.192,6.157,6.157,0,0,1,1.648.552,2.953,2.953,0,0,1,1.056.872,1.951,1.951,0,0,1,.368,1.168A1.926,1.926,0,0,1,101.28-.24a2.953,2.953,0,0,1-1.056.872,6.157,6.157,0,0,1-1.648.552,11.063,11.063,0,0,1-2.16.192,11.094,11.094,0,0,1-2.152-.192A6.03,6.03,0,0,1,92.616.632,2.969,2.969,0,0,1,91.568-.24,1.926,1.926,0,0,1,91.2-1.392a1.951,1.951,0,0,1,.368-1.168,2.969,2.969,0,0,1,1.048-.872,6.03,6.03,0,0,1,1.648-.552A11.094,11.094,0,0,1,96.416-4.176Zm0,3.968a7.1,7.1,0,0,0,2.32-.3q.816-.3.816-.888,0-.608-.816-.9a7.1,7.1,0,0,0-2.32-.3,7.022,7.022,0,0,0-2.312.3q-.808.3-.808.9,0,.592.808.888A7.022,7.022,0,0,0,96.416-.208ZM114.272-13.36H116.4v8.784h-2.128Zm-1.088,6.416L112.16-5.28a5.829,5.829,0,0,1-2.1-1.144,5.6,5.6,0,0,1-1.344-1.752,6.231,6.231,0,0,1-1.4,1.9,5.734,5.734,0,0,1-2.184,1.24L104.1-6.7a5.336,5.336,0,0,0,1.592-.776,4.778,4.778,0,0,0,1.1-1.1,4.381,4.381,0,0,0,.632-1.312,4.992,4.992,0,0,0,.2-1.384v-1.408h2.144v1.408a4.663,4.663,0,0,0,.2,1.352,4.15,4.15,0,0,0,.616,1.24,4.336,4.336,0,0,0,1.064,1.024A5.513,5.513,0,0,0,113.184-6.944Zm-6.832,4.7v-1.7H116.4V1.392h-2.128V-2.24Zm22-4.032A9.374,9.374,0,0,1,126.2-6.5a5.721,5.721,0,0,1-1.688-.664,3.372,3.372,0,0,1-1.1-1.04,2.456,2.456,0,0,1-.392-1.36,2.456,2.456,0,0,1,.392-1.36,3.372,3.372,0,0,1,1.1-1.04,5.721,5.721,0,0,1,1.688-.664,9.374,9.374,0,0,1,2.152-.232,9.347,9.347,0,0,1,2.16.232,5.728,5.728,0,0,1,1.68.664,3.372,3.372,0,0,1,1.1,1.04,2.456,2.456,0,0,1,.392,1.36,2.456,2.456,0,0,1-.392,1.36,3.372,3.372,0,0,1-1.1,1.04,5.728,5.728,0,0,1-1.68.664A9.346,9.346,0,0,1,128.352-6.272Zm0-4.912a5.352,5.352,0,0,0-2.312.416,1.3,1.3,0,0,0-.856,1.2,1.292,1.292,0,0,0,.856,1.216,5.54,5.54,0,0,0,2.312.4,5.482,5.482,0,0,0,2.3-.4,1.292,1.292,0,0,0,.848-1.216,1.3,1.3,0,0,0-.848-1.2A5.3,5.3,0,0,0,128.352-11.184Zm6.7,6.016v1.712h-3.088V1.36h-2.144V-3.456h-2.96V1.36h-2.128V-3.456h-3.024V-5.168Zm12.912-2.144v1.648H137.68v-7.1h10.144V-11.1h-8.048v1.072H147.5v1.6h-7.728v1.12Zm1.392,2.656v1.7h-3.04V1.376h-2.128V-2.96h-2.96V1.376H139.1V-2.96h-3.088v-1.7Zm2.4-7.744h2.1v2.384h6.3V-12.4h2.08v7.856H151.76Zm2.1,4.032v2.144h6.3V-8.368Zm-3.5,6.272H163.7V-.368H150.352Z" transform="translate(1206 2510)" fill="#1f2329"/>
    <path id="Icon_material-navigate-next" data-name="Icon material-navigate-next" d="M14.236,9l-1.351,1.351,4.389,4.4-4.389,4.4L14.236,20.5l5.75-5.75Z" transform="translate(1451.129 2489)"/>
    <g id="Icon_feather-youtube" data-name="Icon feather-youtube" transform="translate(1171.499 2490.349)">
      <path id="패스_3" data-name="패스 3" d="M22.045,8.308A2.652,2.652,0,0,0,20.194,6.4a68.687,68.687,0,0,0-8.2-.4s-6.562,0-8.2.439a2.652,2.652,0,0,0-1.85,1.908A27.661,27.661,0,0,0,1.5,13.392a27.66,27.66,0,0,0,.439,5.084,2.652,2.652,0,0,0,1.85,1.831c1.641.439,8.2.439,8.2.439s6.562,0,8.2-.439a2.652,2.652,0,0,0,1.85-1.908,27.66,27.66,0,0,0,.439-5.007,27.66,27.66,0,0,0-.439-5.084Z" fill="none" stroke="#333" stroke-linecap="round" stroke-linejoin="round" stroke-width="2"/>
      <path id="패스_4" data-name="패스 4" d="M14.625,18.958l5.484-3.119L14.625,12.72Z" transform="translate(-4.779 -2.447)" fill="none" stroke="#333" stroke-linecap="round" stroke-linejoin="round" stroke-width="2"/>
    </g>
  </g>
</svg>
