<?xml version="1.0" encoding="utf-8"?>
<!-- Generator: Adobe Illustrator 15.1.0, SVG Export Plug-In . SVG Version: 6.00 Build 0)  -->
<!DOCTYPE svg PUBLIC "-//W3C//DTD SVG 1.1//EN" "http://www.w3.org/Graphics/SVG/1.1/DTD/svg11.dtd">
<svg version="1.1" id="Layer_1" xmlns="http://www.w3.org/2000/svg" xmlns:xlink="http://www.w3.org/1999/xlink" x="0px" y="0px"
	 width="255.119px" height="91.877px" viewBox="0 0 255.119 91.877" enable-background="new 0 0 255.119 91.877"
	 xml:space="preserve">
<polygon fill="#45B035" points="0,18.542 0,75.235 30.925,75.235 34.4,62.448 14.872,62.448 14.872,18.542 "/>
<g>
	<defs>
		<rect id="SVGID_1_" y="0" width="255.119" height="91.878"/>
	</defs>
	<clipPath id="SVGID_2_">
		<use xlink:href="#SVGID_1_"  overflow="visible"/>
	</clipPath>
	<path clip-path="url(#SVGID_2_)" fill="#45B035" d="M65.398,75.235h-8.061c-13.344,0-24.393-11.814-24.393-25.852
		c0.139-11.815,5.49-17.306,19.25-17.097h2.78c16.401,0,15.775,9.521,15.775,11.606c0,9.313-7.923,15.15-15.22,19.25
		c3.476,0.766,5.699,0.766,7.923,0.766h5.282L65.398,75.235z M53.029,43.614c-4.17,0-6.463,2.085-6.463,6.254
		c0,1.669,0.347,3.405,0.903,5.004c2.85-1.459,9.66-5.489,9.66-9.104C57.128,43.614,54.626,43.614,53.029,43.614"/>
	<path clip-path="url(#SVGID_2_)" fill="#45B035" d="M113.966,33.283c11.397,0,15.01,5.003,15.01,16.123v25.829h-12.995V51.351
		c-0.14-5.421-0.209-6.603-5.838-6.741h-2.155v30.625H94.994V44.61h-7.992v30.625H74.007V33.283H113.966z"/>
	<path clip-path="url(#SVGID_2_)" fill="#FFDE00" d="M240.108,33.282c11.396,0,15.011,5.003,15.011,16.124v25.829h-13.343V51.351
		c-0.141-5.421-0.209-6.602-5.838-6.741h-3.194v30.625h-13.343V33.282H240.108z"/>
	<polygon clip-path="url(#SVGID_2_)" fill="#004FA2" points="35.026,18.29 29.764,8.503 33.55,8.503 36.734,14.852 39.943,8.503 
		43.636,8.503 38.374,18.245 38.374,24.661 35.026,24.661 	"/>
	<path clip-path="url(#SVGID_2_)" fill="#004FA2" d="M44.514,8.503h6.001c1.8,0,3.301,0.484,4.224,1.408
		c0.716,0.739,1.085,1.616,1.085,2.747v0.069c0,1.893-1.039,2.909-2.193,3.531c1.731,0.67,2.885,1.732,2.885,3.856v0.115
		c0,2.908-2.331,4.431-5.839,4.431h-6.163V8.503z M52.522,13.258c0-1.177-0.831-1.8-2.262-1.8h-2.493v3.646H50.1
		c1.477,0,2.423-0.599,2.423-1.822V13.258z M50.7,17.92h-2.932v3.786h3.001c1.5,0,2.447-0.646,2.447-1.893v-0.023
		C53.215,18.636,52.361,17.92,50.7,17.92"/>
	<polygon clip-path="url(#SVGID_2_)" fill="#004FA2" points="58.017,8.503 61.525,8.503 65.126,15.059 68.681,8.503 72.212,8.503 
		72.212,24.661 68.935,24.661 68.935,14.344 65.126,21.015 65.057,21.015 61.271,14.39 61.271,24.661 58.017,24.661 	"/>
	<polygon clip-path="url(#SVGID_2_)" fill="#004FA2" points="35.027,18.29 29.764,8.503 33.55,8.503 36.735,14.852 39.944,8.503 
		43.636,8.503 38.374,18.244 38.374,24.661 35.027,24.661 	"/>
	<path clip-path="url(#SVGID_2_)" fill="#004FA2" d="M44.514,8.503h6.001c1.8,0,3.3,0.484,4.224,1.408
		c0.716,0.739,1.085,1.616,1.085,2.747v0.069c0,1.893-1.038,2.909-2.193,3.531c1.732,0.67,2.886,1.732,2.886,3.855v0.116
		c0,2.908-2.332,4.431-5.84,4.431h-6.163V8.503z M52.523,13.258c0-1.177-0.831-1.8-2.262-1.8h-2.493v3.646H50.1
		c1.477,0,2.423-0.599,2.423-1.823V13.258z M50.7,17.92h-2.932v3.786h3.001c1.5,0,2.447-0.646,2.447-1.893v-0.023
		C53.216,18.636,52.362,17.92,50.7,17.92"/>
	<polygon clip-path="url(#SVGID_2_)" fill="#004FA2" points="58.017,8.503 61.526,8.503 65.127,15.059 68.682,8.503 72.213,8.503 
		72.213,24.661 68.936,24.661 68.936,14.344 65.127,21.015 65.057,21.015 61.272,14.39 61.272,24.661 58.017,24.661 	"/>
	<path clip-path="url(#SVGID_2_)" fill="#FFE100" d="M183.704,23.796c-2.649-1.023-3.714-2.257-5.461-4.66
		c-1.748-2.402-4.055-1.966-4.055-1.966s-2.305-0.436-4.052,1.966c-1.748,2.403-2.813,3.637-5.462,4.66
		c-3.203,1.238-19.223,10.122-19.223,33.567c0,14.636,10.704,25.412,17.84,27.742c1.773,0.579,2.84,1.894,3.495,2.768
		c0.654,0.873,2.937,4.004,7.401,4.004c4.467,0,6.748-3.131,7.404-4.004c0.655-0.874,1.72-2.188,3.495-2.768
		c7.136-2.33,17.839-13.106,17.839-27.742C202.927,33.918,186.908,25.035,183.704,23.796"/>
	<path clip-path="url(#SVGID_2_)" fill="#45B035" d="M151.674,0c0,0,2.04,11.932,9.829,14.157c7.79,2.226,7.048,0.927,12.734,3.03
		c0,0,1.793-8.161-1.235-12.241c-3.459-4.659-6.738-4.451-10.695-3.833C158.351,1.73,155.136,2.226,151.674,0"/>
	<path clip-path="url(#SVGID_2_)" fill="#45B035" d="M174.238,17.186c0,0,1.451-3.05,1.454-7.317c0,0,0.983-1.888,4.126-1.486
		c3.142,0.403,4.253,0.497,5.714-0.82c0,0-0.148,5.005-3.234,6.893C179.211,16.344,178.128,15.322,174.238,17.186"/>
	<path clip-path="url(#SVGID_2_)" fill="#6A3906" d="M171.375,51.727c-0.279,0-0.507-0.227-0.507-0.507
		c0-1.628-1.17-2.953-2.607-2.953c-1.438,0-2.609,1.325-2.609,2.953c0,0.28-0.226,0.507-0.506,0.507
		c-0.278,0-0.506-0.227-0.506-0.507c0-2.188,1.625-3.966,3.621-3.966s3.62,1.778,3.62,3.966
		C171.881,51.5,171.653,51.727,171.375,51.727"/>
	<path clip-path="url(#SVGID_2_)" fill="#6A3906" d="M183.232,51.727c-0.279,0-0.506-0.227-0.506-0.507
		c0-1.628-1.17-2.953-2.608-2.953c-1.438,0-2.608,1.325-2.608,2.953c0,0.28-0.226,0.507-0.506,0.507
		c-0.279,0-0.506-0.227-0.506-0.507c0-2.188,1.624-3.966,3.62-3.966s3.621,1.778,3.621,3.966
		C183.739,51.5,183.511,51.727,183.232,51.727"/>
	<path clip-path="url(#SVGID_2_)" fill="#6A3906" d="M174.189,66.126c5.241,0,9.489-4.249,9.489-9.491h-18.979
		C164.699,61.877,168.948,66.126,174.189,66.126"/>
	<path clip-path="url(#SVGID_2_)" fill="#6A3906" d="M179.908,77.463H168.47c-1.336,0-2.482,0.835-2.956,2.007
		c-14.623-0.033-22.041-4.382-22.041-12.933V45.286c0-0.651-0.527-1.179-1.178-1.179c-5.868,0.001-10.625,4.758-10.625,10.626
		c0,5.469,4.134,9.97,9.446,10.557v1.248c0,10.112,8.21,15.254,24.395,15.29c0.471,1.178,1.62,2.018,2.959,2.018h11.438
		c1.755,0,3.19-1.436,3.19-3.19S181.663,77.463,179.908,77.463"/>
	<path clip-path="url(#SVGID_2_)" fill="#6A3906" d="M206.084,44.105L206.084,44.105c-0.65,0-1.179,0.528-1.179,1.179v18.894
		c0,0.65,0.528,1.179,1.179,1.179c5.868,0,10.626-4.757,10.626-10.626S211.952,44.105,206.084,44.105"/>
	<path clip-path="url(#SVGID_2_)" fill="#DB536B" d="M180.436,63.778c-1.45-1.859-3.706-3.059-6.246-3.059s-4.796,1.199-6.246,3.059
		c1.669,1.461,3.853,2.349,6.246,2.349C176.581,66.126,178.767,65.239,180.436,63.778"/>
</g>
</svg>
